<?xml version="1.0" encoding="UTF-8" standalone="no"?>
<!-- Created with Inkscape (http://www.inkscape.org/) -->
<svg id="svg5296" xmlns:rdf="http://www.w3.org/1999/02/22-rdf-syntax-ns#" xmlns="http://www.w3.org/2000/svg" height="1009" viewBox="0 0 1014.0948 1008.9841" width="1014.1" version="1.1" xmlns:cc="http://creativecommons.org/ns#" xmlns:dc="http://purl.org/dc/elements/1.1/">
 <metadata id="metadata5301">
  <rdf:RDF>
   <cc:Work rdf:about="">
    <dc:format>image/svg+xml</dc:format>
    <dc:type rdf:resource="http://purl.org/dc/dcmitype/StillImage"/>
    <dc:title/>
   </cc:Work>
  </rdf:RDF>
 </metadata>
 <g id="layer1" transform="translate(1161.1 615.91)">
  <path id="path5855" fill="#feea3a" d="m-274.61 392.27c-46.414-10.3-223.79-98.628-289.2-144.02l-9.2254-6.4011-14.83 2.5188c-19.86 3.3732-46.728 9.3784-97.897 21.881-63.532 15.524-89.102 20.868-122.3 25.564-7.9994 1.1315-15.723 2.2784-17.162 2.5486-3.6593 0.68666-3.5612-0.21754 3.1641-29.162 8.4322-36.29 9.7326-46.214 8.9612-68.385-0.95968-27.582-4.2434-42.324-20.977-94.174-15.294-47.388-19.673-66.772-21.205-93.846-1.9943-35.262 6.8458-67.025 29.212-104.96 26.179-44.401 59.881-77.001 102.95-99.589 28.606-15.002 64.562-26.177 97.805-30.397 23.229-2.9488 62.262-2.9602 87.349-0.0257 16.528 1.9334 49.734 7.8569 64.999 11.595 77.828 19.059 140.44 62.883 176.21 123.34 4.189 7.08 14.739 27.877 23.444 46.215 34.675 73.046 47.853 97.535 71.217 132.34 13.766 20.509 33.741 45.67 50.213 63.25l4.919 5.25h-3.6022c-5.6805 0-38.797-4.5425-69.9-9.588-28.589-4.6377-34.055-5.9918-33.228-8.2315 0.35188-0.95283 1.1598-8.363 1.7953-16.467 5.058-64.499-24.954-110.53-82.171-126.04-26.505-7.1841-61.409-5.6828-86.745 3.7311-14.67 5.4582-21.67 9.4849-32.92 18.943l-10.506 8.8347 9.3084 7.6994c22.165 18.333 55.237 32.673 90.757 39.352 9.6622 1.8168 15.451 2.1956 34.136 2.2335l22.501 0.0457-0.71124 3.8226c-1.1653 6.2633-0.81164 73.829 0.48254 92.177 4.4813 63.533 14.948 124.58 33.319 194.32 3.5232 13.375 6.2434 24.907 6.0449 25.626-0.29683 1.0752-1.4004 1.0767-6.2157 0.01zm-870.72-69.642c27.31-23.114 41.453-45.419 49.969-78.81 7.804-30.598 7.7439-75.737-0.1572-117.94-3.0386-16.231-5.2351-23.445-16.461-54.059-13.496-36.804-19.74-55.12-25.742-75.5-25.785-87.561-27.108-166.59-4.1008-245 21.244-72.396 55.899-126.88 115.21-181.13 84.102-76.928 200.09-136.14 323.7-165.27 160.55-37.825 324.06-23.973 473.72 40.131 10.239 4.3857 18.751 8.0796 18.914 8.2085 0.44378 0.35018-89.958 166.34-91.231 167.51-0.27175 0.25016-1.914-0.0508-3.6495-0.66881-71.278-25.382-118.73-36.166-187-42.492-21.996-2.0384-94.426-1.7006-116.36 0.5427-51.476 5.2657-97.701 15.192-143.12 30.734-16.921 5.7905-52.774 21.098-68.143 29.094-101.35 52.732-178.77 140.33-203.56 230.32-6.4594 23.454-7.5602 31.984-7.4873 58.016 0.077 27.309 1.1233 35.509 11.552 90.5 12.549 66.171 14.41 89.972 10.006 128-7.5151 64.895-22.849 102.4-58.272 142.53-9.4473 10.702-26.761 25.366-36.999 31.336-14.963 8.7251-33.003 14.677-50.202 16.562l-6.3294 0.69368 15.726-13.31zm154.18-322.81c-1.77-11.797-2.19-39.332-0.88-57.738 1.2056-16.957 2.0422-24.438 5.4137-48.405 0.43657-3.1039 1.1995-6.2077 1.6955-6.8974 0.70185-0.97613 12.199 0.23431 51.909 5.465 28.054 3.6954 51.167 6.8557 51.362 7.0231 0.47415 0.40744-3.1948 12.879-4.2 14.276-0.43586 0.60605-4.9467 1.5985-10.024 2.2054-26.505 3.1683-52.616 16.531-67.626 34.609-10.024 12.072-18.813 29.659-25.718 51.462l-1.1085 3.5-0.82461-5.5zm70.19-132.53c-27.838-4.6009-51.762-8.3892-53.164-8.4186-1.4021-0.0294-2.8753-0.50663-3.2737-1.0606-1.6742-2.3282 10.861-36.993 13.377-36.993 1.4599 0 103.99 34.14 105.09 34.994 0.91933 0.71068-9.59 20.087-10.807 19.925-0.33557-0.0448-23.387-3.8458-51.225-8.4466zm26.18-49.053c-28.158-12.292-51.72-22.525-52.36-22.739-2.5694-0.86016 19.51-34.27 23.38-35.378 1.0025-0.2872 96.768 60.663 97.409 61.996 0.22215 0.46223-16.545 18.802-16.993 18.586-0.13203-0.0637-23.278-10.173-51.436-22.465zm40.724-44.037c-25.598-17.304-47.786-32.267-49.306-33.251l-2.7636-1.7889 7.3352-7.4211c8.422-8.5207 28.02-25.05 29.254-24.674 0.45658 0.13912 18.978 18.028 41.158 39.753s41.05 40.207 41.933 41.071c1.4093 1.3795 0.32267 2.5697-8.9014 9.75-5.7786 4.4983-10.88 8.1438-11.337 8.1011-0.45661-0.0426-21.774-14.236-47.372-31.54zm49.627-39.663-42.293-43.062 2.7326-1.831c13.974-9.3629 42.392-23.724 43.937-22.203 1.6177 1.5922 61.77 96.35 61.77 97.306 0 0.80136-14.384 8.7088-21.526 11.833-2.0899 0.91435-6.6382-3.3713-44.621-42.044zm59.254-29.745-29.36-50.026 10.854-4.4012c11.507-4.6662 33.129-11.87 38.893-12.958l3.4479-0.65085 17.22 53.346c9.4712 29.34 17.309 54.166 17.418 55.168 0.15958 1.4722-2.3646 2.564-13.145 5.6852-7.3382 2.1247-13.933 3.863-14.655 3.863-0.72226 0-14.525-22.512-30.673-50.026zm83.056 34.691c-0.37995-0.91793-19.09-75.657-26.626-106.36l-1.5205-6.1947 12.353-2.5383c12.576-2.5841 45.986-8.5373 46.229-8.2372 0.0734 0.0907-0.55153 23.34-1.3887 51.665-0.83715 28.325-1.5517 55.156-1.5879 59.625-0.065 8.0381-0.0999 8.1312-3.2655 8.7068-1.7599 0.32001-7.8148 1.463-13.455 2.54-7.4902 1.4302-10.386 1.644-10.738 0.79315zm60.606-22.415c0.39627-9.2125 1.3859-36.446 2.1991-60.519 0.81326-24.073 1.8031-44.048 2.1997-44.389 1.4857-1.2769 55.228-1.5808 72.925-0.41241 29.453 1.9446 57.564 5.9258 79.703 11.288l9.3084 2.2545-12.118 0.70474c-48.39 2.8142-91.082 22.49-115.06 53.026-10.836 13.801-20.038 32.754-23.573 48.548l-1.3986 6.25h-7.455-7.4551l0.72051-16.75z"/>
 </g>
</svg>
